<svg width="175" height="179" viewBox="0 0 175 179" fill="none" xmlns="http://www.w3.org/2000/svg">
<g id="Frame">
<g id="Group 1">
<g id="Vector" filter="url(#filter0_d_68_4424)">
<path d="M139.825 54.6782C142.15 54.6782 144.025 52.7622 144.025 50.409C144.025 48.0454 142.15 46.1398 139.825 46.1398C137.511 46.1398 135.625 48.0454 135.625 50.409C135.625 52.7622 137.511 54.6782 139.825 54.6782Z" fill="#F9F7FF"/>
</g>
<g id="Group" filter="url(#filter1_d_68_4424)">
<path id="Vector_2" d="M133.787 93.5914C133.787 67.6547 113.103 46.6289 87.5875 46.6289C62.0719 46.6289 41.3875 67.6547 41.3875 93.5914C41.3875 119.528 62.0719 140.554 87.5875 140.554C113.103 140.554 133.787 119.528 133.787 93.5914Z" fill="#F9F7FF"/>
</g>
<g id="Vector_3" filter="url(#filter2_d_68_4424)">
<path d="M36.103 145.33C38.8866 145.33 41.143 143.035 41.143 140.207C41.143 137.38 38.8866 135.084 36.103 135.084C33.3194 135.084 31.063 137.38 31.063 140.207C31.063 143.035 33.3194 145.33 36.103 145.33Z" fill="#F9F7FF"/>
</g>
<g id="Vector_4" filter="url(#filter3_d_68_4424)">
<path d="M136.797 135.244C138.657 135.244 140.157 133.706 140.157 131.829C140.157 129.937 138.657 128.413 136.797 128.413C134.95 128.413 133.438 129.937 133.438 131.829C133.438 133.706 134.95 135.244 136.797 135.244Z" fill="#F9F7FF"/>
</g>
<g id="Vector_5" filter="url(#filter4_d_68_4424)">
<path d="M40.8014 51.2628C42.1937 51.2628 43.3214 50.1101 43.3214 48.7014C43.3214 47.2834 42.1937 46.1398 40.8014 46.1398C39.41 46.1398 38.2814 47.2834 38.2814 48.7014C38.2814 50.1101 39.41 51.2628 40.8014 51.2628Z" fill="#F9F7FF"/>
</g>
</g>
<g id="Group_2">
<path id="Vector_6" d="M83.5801 78.4369L80.9693 79.4295C80.7615 79.5069 80.623 79.7111 80.623 79.9364C80.623 80.1616 80.7615 80.3658 80.9693 80.4432L83.5801 81.4358L84.5566 84.0897C84.6328 84.3009 84.8336 84.4417 85.0552 84.4417C85.2768 84.4417 85.4776 84.3009 85.5539 84.0897L86.5302 81.4358L89.1411 80.4432C89.3489 80.3658 89.4873 80.1616 89.4873 79.9364C89.4873 79.7111 89.3489 79.5069 89.1411 79.4295L86.5302 78.4369L85.5539 75.783C85.4776 75.5718 85.2768 75.431 85.0552 75.431C84.8336 75.431 84.6328 75.5718 84.5566 75.783L83.5801 78.4369Z" fill="#D7D7D7"/>
<path id="Vector_7" d="M67.8458 83.6815C67.5342 83.8011 67.3264 84.1038 67.3264 84.4418C67.3264 84.7796 67.5342 85.0823 67.8458 85.202L71.7586 86.6944L73.2267 90.6718C73.3445 90.9885 73.6423 91.1997 73.9747 91.1997C74.3071 91.1997 74.6049 90.9885 74.7226 90.6718L76.1908 86.6944L80.1036 85.202C80.4152 85.0823 80.623 84.7796 80.623 84.4418C80.623 84.1038 80.4152 83.8011 80.1036 83.6815L76.1908 82.1891L74.7226 78.2118C74.6049 77.8949 74.3071 77.6837 73.9747 77.6837C73.6423 77.6837 73.3445 77.8949 73.2267 78.2118L71.7586 82.1891L67.8458 83.6815Z" fill="#D7D7D7"/>
<path id="Vector_8" d="M92.2227 101.703C91.9112 101.822 91.7034 102.125 91.7034 102.463C91.7034 102.801 91.9112 103.104 92.2227 103.223L96.1356 104.716L97.6037 108.693C97.7214 109.01 98.0193 109.221 98.3516 109.221C98.684 109.221 98.9819 109.01 99.0995 108.693L100.568 104.716L104.48 103.223C104.792 103.104 105 102.801 105 102.463C105 102.125 104.792 101.822 104.48 101.703L100.568 100.21L99.0995 96.233C98.9819 95.9163 98.684 95.7051 98.3516 95.7051C98.0193 95.7051 97.7214 95.9163 97.6037 96.233L96.1356 100.21L92.2227 101.703Z" fill="#D7D7D7"/>
</g>
<path id="Vector_9" fill-rule="evenodd" clip-rule="evenodd" d="M70.959 102.804C69.6803 104.119 69.6803 106.258 70.959 107.58L73.3249 110.013C74.6037 111.329 76.6824 111.329 77.9679 110.013L104.041 83.1885C105.32 81.8732 105.32 79.7351 104.041 78.4129L101.675 75.9864C100.396 74.6712 98.3176 74.6712 97.032 75.9864L70.959 102.804ZM100.943 80.8042L93.7635 88.1891L92.1703 86.5504L99.3501 79.1655L100.943 80.8042Z" fill="#D7D7D7"/>
</g>
<defs>
<filter id="filter0_d_68_4424" x="123.625" y="46.1398" width="32.4" height="32.5384" filterUnits="userSpaceOnUse" color-interpolation-filters="sRGB">
<feFlood flood-opacity="0" result="BackgroundImageFix"/>
<feColorMatrix in="SourceAlpha" type="matrix" values="0 0 0 0 0 0 0 0 0 0 0 0 0 0 0 0 0 0 127 0" result="hardAlpha"/>
<feOffset dy="12"/>
<feGaussianBlur stdDeviation="6"/>
<feComposite in2="hardAlpha" operator="out"/>
<feColorMatrix type="matrix" values="0 0 0 0 0.30786 0 0 0 0 0.286983 0 0 0 0 0.335 0 0 0 0.08 0"/>
<feBlend mode="normal" in2="BackgroundImageFix" result="effect1_dropShadow_68_4424"/>
<feBlend mode="normal" in="SourceGraphic" in2="effect1_dropShadow_68_4424" result="shape"/>
</filter>
<filter id="filter1_d_68_4424" x="29.3875" y="46.6289" width="116.4" height="117.925" filterUnits="userSpaceOnUse" color-interpolation-filters="sRGB">
<feFlood flood-opacity="0" result="BackgroundImageFix"/>
<feColorMatrix in="SourceAlpha" type="matrix" values="0 0 0 0 0 0 0 0 0 0 0 0 0 0 0 0 0 0 127 0" result="hardAlpha"/>
<feOffset dy="12"/>
<feGaussianBlur stdDeviation="6"/>
<feComposite in2="hardAlpha" operator="out"/>
<feColorMatrix type="matrix" values="0 0 0 0 0.30786 0 0 0 0 0.286983 0 0 0 0 0.335 0 0 0 0.08 0"/>
<feBlend mode="normal" in2="BackgroundImageFix" result="effect1_dropShadow_68_4424"/>
<feBlend mode="normal" in="SourceGraphic" in2="effect1_dropShadow_68_4424" result="shape"/>
</filter>
<filter id="filter2_d_68_4424" x="19.063" y="135.084" width="34.08" height="34.2463" filterUnits="userSpaceOnUse" color-interpolation-filters="sRGB">
<feFlood flood-opacity="0" result="BackgroundImageFix"/>
<feColorMatrix in="SourceAlpha" type="matrix" values="0 0 0 0 0 0 0 0 0 0 0 0 0 0 0 0 0 0 127 0" result="hardAlpha"/>
<feOffset dy="12"/>
<feGaussianBlur stdDeviation="6"/>
<feComposite in2="hardAlpha" operator="out"/>
<feColorMatrix type="matrix" values="0 0 0 0 0.30786 0 0 0 0 0.286983 0 0 0 0 0.335 0 0 0 0.08 0"/>
<feBlend mode="normal" in2="BackgroundImageFix" result="effect1_dropShadow_68_4424"/>
<feBlend mode="normal" in="SourceGraphic" in2="effect1_dropShadow_68_4424" result="shape"/>
</filter>
<filter id="filter3_d_68_4424" x="121.438" y="128.413" width="30.72" height="30.8309" filterUnits="userSpaceOnUse" color-interpolation-filters="sRGB">
<feFlood flood-opacity="0" result="BackgroundImageFix"/>
<feColorMatrix in="SourceAlpha" type="matrix" values="0 0 0 0 0 0 0 0 0 0 0 0 0 0 0 0 0 0 127 0" result="hardAlpha"/>
<feOffset dy="12"/>
<feGaussianBlur stdDeviation="6"/>
<feComposite in2="hardAlpha" operator="out"/>
<feColorMatrix type="matrix" values="0 0 0 0 0.30786 0 0 0 0 0.286983 0 0 0 0 0.335 0 0 0 0.08 0"/>
<feBlend mode="normal" in2="BackgroundImageFix" result="effect1_dropShadow_68_4424"/>
<feBlend mode="normal" in="SourceGraphic" in2="effect1_dropShadow_68_4424" result="shape"/>
</filter>
<filter id="filter4_d_68_4424" x="26.2814" y="46.1398" width="29.04" height="29.123" filterUnits="userSpaceOnUse" color-interpolation-filters="sRGB">
<feFlood flood-opacity="0" result="BackgroundImageFix"/>
<feColorMatrix in="SourceAlpha" type="matrix" values="0 0 0 0 0 0 0 0 0 0 0 0 0 0 0 0 0 0 127 0" result="hardAlpha"/>
<feOffset dy="12"/>
<feGaussianBlur stdDeviation="6"/>
<feComposite in2="hardAlpha" operator="out"/>
<feColorMatrix type="matrix" values="0 0 0 0 0.30786 0 0 0 0 0.286983 0 0 0 0 0.335 0 0 0 0.08 0"/>
<feBlend mode="normal" in2="BackgroundImageFix" result="effect1_dropShadow_68_4424"/>
<feBlend mode="normal" in="SourceGraphic" in2="effect1_dropShadow_68_4424" result="shape"/>
</filter>
</defs>
</svg>
