<svg width="18" height="18" viewBox="0 0 18 18" fill="none" xmlns="http://www.w3.org/2000/svg">
<g id="brand-google">
<path id="Vector" fill-rule="evenodd" clip-rule="evenodd" d="M4.43619 3.04837C5.79095 2.00951 7.45959 1.46394 9.16639 1.50182C10.8732 1.53969 12.516 2.15874 13.8233 3.25667C14.1405 3.52306 14.1817 3.99614 13.9153 4.31334C13.649 4.63053 13.1759 4.67172 12.8587 4.40533C11.8128 3.52699 10.4986 3.03175 9.13312 3.00145C7.76768 2.97115 6.43276 3.4076 5.34895 4.23869C4.26514 5.06978 3.49731 6.24576 3.17233 7.57231C2.84735 8.89886 2.98468 10.2966 3.56162 11.5345C4.13856 12.7725 5.12058 13.7765 6.34541 14.3808C7.57024 14.985 8.96457 15.1534 10.298 14.8579C11.6314 14.5624 12.8242 13.8209 13.6791 12.7558C14.3764 11.8871 14.8149 10.8456 14.953 9.75H9.75001C9.33579 9.75 9.00001 9.41422 9.00001 9C9.00001 8.58579 9.33579 8.25 9.75001 8.25H15.75C15.9489 8.25 16.1397 8.32902 16.2803 8.46968C16.421 8.61033 16.5 8.8011 16.5 9.00001C16.5 10.7072 15.9175 12.3634 14.8489 13.6947C13.7802 15.0261 12.2893 15.953 10.6225 16.3224C8.95571 16.6917 7.21279 16.4813 5.68176 15.726C4.15072 14.9706 2.92319 13.7156 2.20202 12.1682C1.48085 10.6207 1.30919 8.87358 1.71541 7.21539C2.12164 5.5572 3.08143 4.08723 4.43619 3.04837Z" fill="#747474"/>
</g>
</svg>
