<svg width="16" height="16" viewBox="0 0 16 16" fill="none" xmlns="http://www.w3.org/2000/svg">
<g id="highlight">
<path id="Vector" fill-rule="evenodd" clip-rule="evenodd" d="M8.52864 2.52858C9.00728 2.04994 9.65647 1.78104 10.3334 1.78104C11.0103 1.78104 11.6595 2.04994 12.1381 2.52858C12.6168 3.00723 12.8857 3.65641 12.8857 4.33332C12.8857 5.01023 12.6168 5.65941 12.1381 6.13806L11.4724 6.80377C11.4721 6.80409 11.4718 6.80441 11.4714 6.80473C11.4711 6.80505 11.4708 6.80537 11.4705 6.80569L6.13907 12.1371C6.13875 12.1374 6.13843 12.1377 6.13811 12.1381C6.13779 12.1384 6.13747 12.1387 6.13715 12.139L5.13811 13.1381C5.01309 13.2631 4.84352 13.3333 4.66671 13.3333H2.00004C1.63185 13.3333 1.33337 13.0348 1.33337 12.6667V9.99999C1.33337 9.82318 1.40361 9.65361 1.52864 9.52858L8.52864 2.52858ZM8.33337 4.60946L3.94285 8.99999L5.66671 10.7238L10.0572 6.33332L8.33337 4.60946ZM11 5.39051L9.27618 3.66666L9.47145 3.47139C9.70004 3.24279 10.0101 3.11437 10.3334 3.11437C10.6567 3.11437 10.9667 3.24279 11.1953 3.47139C11.4239 3.69999 11.5523 4.01003 11.5523 4.33332C11.5523 4.65661 11.4239 4.96665 11.1953 5.19525L11 5.39051ZM4.7239 11.6667L3.00004 9.9428L2.66671 10.2761V12H4.39057L4.7239 11.6667ZM10.862 9.52858C10.987 9.40356 11.1566 9.33332 11.3334 9.33332H14C14.3682 9.33332 14.6667 9.6318 14.6667 9.99999V12.6667C14.6667 13.0348 14.3682 13.3333 14 13.3333H8.66671C8.39707 13.3333 8.15398 13.1709 8.05079 12.9218C7.9476 12.6727 8.00464 12.3859 8.1953 12.1953L10.862 9.52858ZM13.3334 10.6667H11.6095L10.2762 12H13.3334V10.6667Z" fill="#747474"/>
</g>
</svg>
