<svg width="16" height="16" viewBox="0 0 16 16" fill="none" xmlns="http://www.w3.org/2000/svg">
<g id="history">
<path id="Vector" fill-rule="evenodd" clip-rule="evenodd" d="M11.5091 3.92298C10.5218 3.06137 9.25183 2.5934 7.94149 2.60837C6.63116 2.62334 5.37221 3.12019 4.40482 4.00413C3.43743 4.88806 2.82932 6.09722 2.69653 7.40089C2.65922 7.76718 2.33203 8.03387 1.96574 7.99656C1.59944 7.95925 1.33275 7.63206 1.37006 7.26577C1.53605 5.63618 2.29618 4.12474 3.50542 3.01982C4.71465 1.91489 6.28835 1.29383 7.92627 1.27512C9.56418 1.25642 11.1517 1.84137 12.3858 2.91839C13.62 3.9954 14.4144 5.48909 14.6176 7.11446C14.8208 8.73983 14.4184 10.3831 13.4874 11.7308C12.5563 13.0784 11.1616 14.0362 9.56953 14.4212C7.97741 14.8063 6.29925 14.5917 4.85524 13.8184C4.00678 13.3641 3.27404 12.7355 2.69996 11.9822V13.3333C2.69996 13.7015 2.40149 14 2.0333 14C1.66511 14 1.36663 13.7015 1.36663 13.3333V9.99999C1.36663 9.6318 1.66511 9.33333 2.0333 9.33333H2.35108C2.36143 9.33309 2.37176 9.33309 2.38207 9.33333H5.36663C5.73482 9.33333 6.0333 9.6318 6.0333 9.99999C6.0333 10.3682 5.73482 10.6667 5.36663 10.6667H3.41794C3.91095 11.496 4.62326 12.1817 5.48468 12.643C6.63988 13.2616 7.98241 13.4333 9.2561 13.1252C10.5298 12.8172 11.6455 12.051 12.3904 10.9729C13.1352 9.89476 13.4571 8.58013 13.2946 7.27984C13.132 5.97954 12.4965 4.78459 11.5091 3.92298ZM7.99997 4.66666C8.36816 4.66666 8.66664 4.96513 8.66664 5.33332V7.72385L9.80471 8.86192C10.0651 9.12227 10.0651 9.54438 9.80471 9.80473C9.54436 10.0651 9.12225 10.0651 8.8619 9.80473L7.52857 8.47139C7.40354 8.34637 7.3333 8.1768 7.3333 7.99999V5.33332C7.3333 4.96513 7.63178 4.66666 7.99997 4.66666Z" fill="#747474"/>
</g>
</svg>
