<svg width="18" height="18" viewBox="0 0 18 18" fill="none" xmlns="http://www.w3.org/2000/svg">
<g id="corner-up-left">
<path id="Vector" fill-rule="evenodd" clip-rule="evenodd" d="M7.28033 3.21967C7.57322 3.51256 7.57322 3.98744 7.28033 4.28033L5.56066 6H11.25C12.0456 6 12.8087 6.31607 13.3713 6.87868C13.9339 7.44129 14.25 8.20435 14.25 9V13.5C14.25 13.9142 13.9142 14.25 13.5 14.25C13.0858 14.25 12.75 13.9142 12.75 13.5V9C12.75 8.60217 12.592 8.22064 12.3107 7.93934C12.0294 7.65804 11.6478 7.5 11.25 7.5H5.56066L7.28033 9.21967C7.57322 9.51256 7.57322 9.98744 7.28033 10.2803C6.98744 10.5732 6.51256 10.5732 6.21967 10.2803L3.21967 7.28033C2.92678 6.98744 2.92678 6.51256 3.21967 6.21967L6.21967 3.21967C6.51256 2.92678 6.98744 2.92678 7.28033 3.21967Z" fill="#747474"/>
</g>
</svg>
