<svg width="18" height="18" viewBox="0 0 18 18" fill="none" xmlns="http://www.w3.org/2000/svg">
<g id="send">
<path id="Vector" fill-rule="evenodd" clip-rule="evenodd" d="M16.2804 1.71969C16.486 1.92531 16.5542 2.23125 16.4555 2.50475L11.5805 16.0048C11.5734 16.0243 11.5655 16.0436 11.5569 16.0625C11.4641 16.2648 11.3153 16.4363 11.1279 16.5565C10.9406 16.6768 10.7227 16.7407 10.5001 16.7407C10.2774 16.7407 10.0595 16.6768 9.87219 16.5565C9.68934 16.4392 9.54312 16.273 9.44999 16.0769L6.94103 11.059L1.92314 8.55009C1.72707 8.45696 1.56088 8.31074 1.44353 8.12788C1.32331 7.94054 1.2594 7.72262 1.2594 7.50002C1.2594 7.27742 1.32331 7.0595 1.44353 6.87216C1.56376 6.68482 1.73524 6.53594 1.9376 6.4432C1.95651 6.43454 1.97576 6.42667 1.99532 6.41961L15.4953 1.54461C15.7688 1.44584 16.0748 1.51407 16.2804 1.71969ZM8.41262 10.6481L10.4492 14.7212L13.9024 5.15829L8.41262 10.6481ZM12.8418 4.09763L3.27887 7.55091L7.35196 9.58745L12.8418 4.09763Z" fill="#FCFCFD"/>
</g>
</svg>
